G04 #@! TF.GenerationSoftware,KiCad,Pcbnew,(5.0.2)-1*
G04 #@! TF.CreationDate,2019-02-04T13:01:01-08:00*
G04 #@! TF.ProjectId,samsamps,73616d73-616d-4707-932e-6b696361645f,rev?*
G04 #@! TF.SameCoordinates,Original*
G04 #@! TF.FileFunction,Legend,Bot*
G04 #@! TF.FilePolarity,Positive*
%FSLAX46Y46*%
G04 Gerber Fmt 4.6, Leading zero omitted, Abs format (unit mm)*
G04 Created by KiCad (PCBNEW (5.0.2)-1) date 2/4/2019 1:01:01 PM*
%MOMM*%
%LPD*%
G01*
G04 APERTURE LIST*
%ADD10C,0.300000*%
%ADD11C,0.150000*%
%ADD12C,0.250000*%
G04 APERTURE END LIST*
D10*
X214534523Y-87123095D02*
X214534523Y-85218333D01*
X210534523Y-85218333D01*
X214153571Y-90742142D02*
X214344047Y-90551666D01*
X214534523Y-89980238D01*
X214534523Y-89599285D01*
X214344047Y-89027857D01*
X213963095Y-88646904D01*
X213582142Y-88456428D01*
X212820238Y-88265952D01*
X212248809Y-88265952D01*
X211486904Y-88456428D01*
X211105952Y-88646904D01*
X210725000Y-89027857D01*
X210534523Y-89599285D01*
X210534523Y-89980238D01*
X210725000Y-90551666D01*
X210915476Y-90742142D01*
X214534523Y-92456428D02*
X210534523Y-92456428D01*
X210534523Y-93408809D01*
X210725000Y-93980238D01*
X211105952Y-94361190D01*
X211486904Y-94551666D01*
X212248809Y-94742142D01*
X212820238Y-94742142D01*
X213582142Y-94551666D01*
X213963095Y-94361190D01*
X214344047Y-93980238D01*
X214534523Y-93408809D01*
X214534523Y-92456428D01*
X210344047Y-99313571D02*
X215486904Y-95885000D01*
X214344047Y-100456428D02*
X214534523Y-101027857D01*
X214534523Y-101980238D01*
X214344047Y-102361190D01*
X214153571Y-102551666D01*
X213772619Y-102742142D01*
X213391666Y-102742142D01*
X213010714Y-102551666D01*
X212820238Y-102361190D01*
X212629761Y-101980238D01*
X212439285Y-101218333D01*
X212248809Y-100837380D01*
X212058333Y-100646904D01*
X211677380Y-100456428D01*
X211296428Y-100456428D01*
X210915476Y-100646904D01*
X210725000Y-100837380D01*
X210534523Y-101218333D01*
X210534523Y-102170714D01*
X210725000Y-102742142D01*
X214534523Y-104456428D02*
X210534523Y-104456428D01*
X210534523Y-105408809D01*
X210725000Y-105980238D01*
X211105952Y-106361190D01*
X211486904Y-106551666D01*
X212248809Y-106742142D01*
X212820238Y-106742142D01*
X213582142Y-106551666D01*
X213963095Y-106361190D01*
X214344047Y-105980238D01*
X214534523Y-105408809D01*
X214534523Y-104456428D01*
D11*
X103505000Y-31750000D02*
X103505000Y-64135000D01*
X130175000Y-31750000D02*
X130175000Y-64135000D01*
X156845000Y-31750000D02*
X156845000Y-64135000D01*
X183515000Y-64135000D02*
X183515000Y-31750000D01*
X77470000Y-64135000D02*
X210820000Y-64135000D01*
D10*
X196436904Y-48609285D02*
X195103571Y-48609285D01*
X194532142Y-50704523D02*
X196436904Y-50704523D01*
X196436904Y-46704523D01*
X194532142Y-46704523D01*
X190722619Y-50704523D02*
X193008333Y-50704523D01*
X191865476Y-50704523D02*
X191865476Y-46704523D01*
X192246428Y-47275952D01*
X192627380Y-47656904D01*
X193008333Y-47847380D01*
X169766904Y-48609285D02*
X168433571Y-48609285D01*
X167862142Y-50704523D02*
X169766904Y-50704523D01*
X169766904Y-46704523D01*
X167862142Y-46704523D01*
X165385952Y-46704523D02*
X165005000Y-46704523D01*
X164624047Y-46895000D01*
X164433571Y-47085476D01*
X164243095Y-47466428D01*
X164052619Y-48228333D01*
X164052619Y-49180714D01*
X164243095Y-49942619D01*
X164433571Y-50323571D01*
X164624047Y-50514047D01*
X165005000Y-50704523D01*
X165385952Y-50704523D01*
X165766904Y-50514047D01*
X165957380Y-50323571D01*
X166147857Y-49942619D01*
X166338333Y-49180714D01*
X166338333Y-48228333D01*
X166147857Y-47466428D01*
X165957380Y-47085476D01*
X165766904Y-46895000D01*
X165385952Y-46704523D01*
X141668333Y-46704523D02*
X139001666Y-46704523D01*
X141668333Y-50704523D01*
X139001666Y-50704523D01*
X113665000Y-48799761D02*
X113665000Y-50704523D01*
X114998333Y-46704523D02*
X113665000Y-48799761D01*
X112331666Y-46704523D01*
X88328333Y-46704523D02*
X85661666Y-50704523D01*
X85661666Y-46704523D02*
X88328333Y-50704523D01*
D11*
X95885000Y-109220000D02*
X77470000Y-109220000D01*
X147320000Y-146685000D02*
X147320000Y-133350000D01*
X128270000Y-146685000D02*
X128270000Y-133350000D01*
D10*
X215804523Y-136874523D02*
X213899761Y-135541190D01*
X215804523Y-134588809D02*
X211804523Y-134588809D01*
X211804523Y-136112619D01*
X211995000Y-136493571D01*
X212185476Y-136684047D01*
X212566428Y-136874523D01*
X213137857Y-136874523D01*
X213518809Y-136684047D01*
X213709285Y-136493571D01*
X213899761Y-136112619D01*
X213899761Y-134588809D01*
X215614047Y-138398333D02*
X215804523Y-138969761D01*
X215804523Y-139922142D01*
X215614047Y-140303095D01*
X215423571Y-140493571D01*
X215042619Y-140684047D01*
X214661666Y-140684047D01*
X214280714Y-140493571D01*
X214090238Y-140303095D01*
X213899761Y-139922142D01*
X213709285Y-139160238D01*
X213518809Y-138779285D01*
X213328333Y-138588809D01*
X212947380Y-138398333D01*
X212566428Y-138398333D01*
X212185476Y-138588809D01*
X211995000Y-138779285D01*
X211804523Y-139160238D01*
X211804523Y-140112619D01*
X211995000Y-140684047D01*
X211804523Y-141826904D02*
X211804523Y-144112619D01*
X215804523Y-142969761D02*
X211804523Y-142969761D01*
D11*
X194310000Y-125730000D02*
X168910000Y-125730000D01*
D10*
X217102857Y-124908571D02*
X217817142Y-124908571D01*
X217888571Y-125622857D01*
X217817142Y-125551428D01*
X217674285Y-125480000D01*
X217317142Y-125480000D01*
X217174285Y-125551428D01*
X217102857Y-125622857D01*
X217031428Y-125765714D01*
X217031428Y-126122857D01*
X217102857Y-126265714D01*
X217174285Y-126337142D01*
X217317142Y-126408571D01*
X217674285Y-126408571D01*
X217817142Y-126337142D01*
X217888571Y-126265714D01*
X216602857Y-124908571D02*
X216102857Y-126408571D01*
X215602857Y-124908571D01*
X217531428Y-122368571D02*
X217388571Y-122368571D01*
X217245714Y-122440000D01*
X217174285Y-122511428D01*
X217102857Y-122654285D01*
X217031428Y-122940000D01*
X217031428Y-123297142D01*
X217102857Y-123582857D01*
X217174285Y-123725714D01*
X217245714Y-123797142D01*
X217388571Y-123868571D01*
X217531428Y-123868571D01*
X217674285Y-123797142D01*
X217745714Y-123725714D01*
X217817142Y-123582857D01*
X217888571Y-123297142D01*
X217888571Y-122940000D01*
X217817142Y-122654285D01*
X217745714Y-122511428D01*
X217674285Y-122440000D01*
X217531428Y-122368571D01*
X216602857Y-122368571D02*
X216102857Y-123868571D01*
X215602857Y-122368571D01*
D11*
X194310000Y-121285000D02*
X228600000Y-121285000D01*
X194310000Y-125730000D02*
X194310000Y-121285000D01*
D12*
X211200000Y-125674285D02*
X210771428Y-125817142D01*
X210057142Y-125817142D01*
X209771428Y-125674285D01*
X209628571Y-125531428D01*
X209485714Y-125245714D01*
X209485714Y-124960000D01*
X209628571Y-124674285D01*
X209771428Y-124531428D01*
X210057142Y-124388571D01*
X210628571Y-124245714D01*
X210914285Y-124102857D01*
X211057142Y-123960000D01*
X211200000Y-123674285D01*
X211200000Y-123388571D01*
X211057142Y-123102857D01*
X210914285Y-122960000D01*
X210628571Y-122817142D01*
X209914285Y-122817142D01*
X209485714Y-122960000D01*
X208200000Y-124245714D02*
X207200000Y-124245714D01*
X206771428Y-125817142D02*
X208200000Y-125817142D01*
X208200000Y-122817142D01*
X206771428Y-122817142D01*
X203771428Y-125817142D02*
X204771428Y-124388571D01*
X205485714Y-125817142D02*
X205485714Y-122817142D01*
X204342857Y-122817142D01*
X204057142Y-122960000D01*
X203914285Y-123102857D01*
X203771428Y-123388571D01*
X203771428Y-123817142D01*
X203914285Y-124102857D01*
X204057142Y-124245714D01*
X204342857Y-124388571D01*
X205485714Y-124388571D01*
X202914285Y-122817142D02*
X201914285Y-125817142D01*
X200914285Y-122817142D01*
X199342857Y-122817142D02*
X198771428Y-122817142D01*
X198485714Y-122960000D01*
X198200000Y-123245714D01*
X198057142Y-123817142D01*
X198057142Y-124817142D01*
X198200000Y-125388571D01*
X198485714Y-125674285D01*
X198771428Y-125817142D01*
X199342857Y-125817142D01*
X199628571Y-125674285D01*
X199914285Y-125388571D01*
X200057142Y-124817142D01*
X200057142Y-123817142D01*
X199914285Y-123245714D01*
X199628571Y-122960000D01*
X199342857Y-122817142D01*
X196914285Y-125674285D02*
X196485714Y-125817142D01*
X195771428Y-125817142D01*
X195485714Y-125674285D01*
X195342857Y-125531428D01*
X195200000Y-125245714D01*
X195200000Y-124960000D01*
X195342857Y-124674285D01*
X195485714Y-124531428D01*
X195771428Y-124388571D01*
X196342857Y-124245714D01*
X196628571Y-124102857D01*
X196771428Y-123960000D01*
X196914285Y-123674285D01*
X196914285Y-123388571D01*
X196771428Y-123102857D01*
X196628571Y-122960000D01*
X196342857Y-122817142D01*
X195628571Y-122817142D01*
X195200000Y-122960000D01*
D11*
X201930000Y-130810000D02*
X201930000Y-126365000D01*
X207645000Y-130810000D02*
X201930000Y-130810000D01*
X207645000Y-130810000D02*
X228600000Y-130810000D01*
X207645000Y-130810000D02*
X207645000Y-146685000D01*
X194310000Y-125730000D02*
X201930000Y-126365000D01*
X168910000Y-146685000D02*
X168910000Y-125730000D01*
D12*
X200840714Y-126627142D02*
X199126428Y-126627142D01*
X199983571Y-129627142D02*
X199983571Y-126627142D01*
X198126428Y-129627142D02*
X198126428Y-126627142D01*
X198126428Y-128055714D02*
X196412142Y-128055714D01*
X196412142Y-129627142D02*
X196412142Y-126627142D01*
X194983571Y-128055714D02*
X193983571Y-128055714D01*
X193555000Y-129627142D02*
X194983571Y-129627142D01*
X194983571Y-126627142D01*
X193555000Y-126627142D01*
X190555000Y-129627142D02*
X191555000Y-128198571D01*
X192269285Y-129627142D02*
X192269285Y-126627142D01*
X191126428Y-126627142D01*
X190840714Y-126770000D01*
X190697857Y-126912857D01*
X190555000Y-127198571D01*
X190555000Y-127627142D01*
X190697857Y-127912857D01*
X190840714Y-128055714D01*
X191126428Y-128198571D01*
X192269285Y-128198571D01*
X189269285Y-129627142D02*
X189269285Y-126627142D01*
X188269285Y-128770000D01*
X187269285Y-126627142D01*
X187269285Y-129627142D01*
X185840714Y-129627142D02*
X185840714Y-126627142D01*
X184555000Y-129484285D02*
X184126428Y-129627142D01*
X183412142Y-129627142D01*
X183126428Y-129484285D01*
X182983571Y-129341428D01*
X182840714Y-129055714D01*
X182840714Y-128770000D01*
X182983571Y-128484285D01*
X183126428Y-128341428D01*
X183412142Y-128198571D01*
X183983571Y-128055714D01*
X184269285Y-127912857D01*
X184412142Y-127770000D01*
X184555000Y-127484285D01*
X184555000Y-127198571D01*
X184412142Y-126912857D01*
X184269285Y-126770000D01*
X183983571Y-126627142D01*
X183269285Y-126627142D01*
X182840714Y-126770000D01*
X181983571Y-126627142D02*
X180269285Y-126627142D01*
X181126428Y-129627142D02*
X181126428Y-126627142D01*
X178697857Y-126627142D02*
X178126428Y-126627142D01*
X177840714Y-126770000D01*
X177555000Y-127055714D01*
X177412142Y-127627142D01*
X177412142Y-128627142D01*
X177555000Y-129198571D01*
X177840714Y-129484285D01*
X178126428Y-129627142D01*
X178697857Y-129627142D01*
X178983571Y-129484285D01*
X179269285Y-129198571D01*
X179412142Y-128627142D01*
X179412142Y-127627142D01*
X179269285Y-127055714D01*
X178983571Y-126770000D01*
X178697857Y-126627142D01*
X174412142Y-129627142D02*
X175412142Y-128198571D01*
X176126428Y-129627142D02*
X176126428Y-126627142D01*
X174983571Y-126627142D01*
X174697857Y-126770000D01*
X174555000Y-126912857D01*
X174412142Y-127198571D01*
X174412142Y-127627142D01*
X174555000Y-127912857D01*
X174697857Y-128055714D01*
X174983571Y-128198571D01*
X176126428Y-128198571D01*
X173269285Y-129484285D02*
X172840714Y-129627142D01*
X172126428Y-129627142D01*
X171840714Y-129484285D01*
X171697857Y-129341428D01*
X171555000Y-129055714D01*
X171555000Y-128770000D01*
X171697857Y-128484285D01*
X171840714Y-128341428D01*
X172126428Y-128198571D01*
X172697857Y-128055714D01*
X172983571Y-127912857D01*
X173126428Y-127770000D01*
X173269285Y-127484285D01*
X173269285Y-127198571D01*
X173126428Y-126912857D01*
X172983571Y-126770000D01*
X172697857Y-126627142D01*
X171983571Y-126627142D01*
X171555000Y-126770000D01*
D10*
X153337142Y-140120714D02*
X155622857Y-140120714D01*
X154480000Y-138977857D02*
X154480000Y-141263571D01*
X159337142Y-140120714D02*
X161622857Y-140120714D01*
X133652142Y-140120714D02*
X135937857Y-140120714D01*
X134795000Y-138977857D02*
X134795000Y-141263571D01*
X139652142Y-140120714D02*
X141937857Y-140120714D01*
X114602142Y-140120714D02*
X116887857Y-140120714D01*
X115745000Y-138977857D02*
X115745000Y-141263571D01*
X120602142Y-140120714D02*
X122887857Y-140120714D01*
X167511666Y-145954523D02*
X167511666Y-141954523D01*
X167511666Y-143859285D02*
X165225952Y-143859285D01*
X165225952Y-145954523D02*
X165225952Y-141954523D01*
X162559285Y-141954523D02*
X161797380Y-141954523D01*
X161416428Y-142145000D01*
X161035476Y-142525952D01*
X160845000Y-143287857D01*
X160845000Y-144621190D01*
X161035476Y-145383095D01*
X161416428Y-145764047D01*
X161797380Y-145954523D01*
X162559285Y-145954523D01*
X162940238Y-145764047D01*
X163321190Y-145383095D01*
X163511666Y-144621190D01*
X163511666Y-143287857D01*
X163321190Y-142525952D01*
X162940238Y-142145000D01*
X162559285Y-141954523D01*
X159702142Y-141954523D02*
X157416428Y-141954523D01*
X158559285Y-145954523D02*
X158559285Y-141954523D01*
X156083095Y-143859285D02*
X154749761Y-143859285D01*
X154178333Y-145954523D02*
X156083095Y-145954523D01*
X156083095Y-141954523D01*
X154178333Y-141954523D01*
X152464047Y-145954523D02*
X152464047Y-141954523D01*
X150178333Y-145954523D01*
X150178333Y-141954523D01*
X148273571Y-145954523D02*
X148273571Y-141954523D01*
X147321190Y-141954523D01*
X146749761Y-142145000D01*
X146368809Y-142525952D01*
X146178333Y-142906904D01*
X145987857Y-143668809D01*
X145987857Y-144240238D01*
X146178333Y-145002142D01*
X146368809Y-145383095D01*
X146749761Y-145764047D01*
X147321190Y-145954523D01*
X148273571Y-145954523D01*
X141033095Y-143859285D02*
X142366428Y-143859285D01*
X142366428Y-145954523D02*
X142366428Y-141954523D01*
X140461666Y-141954523D01*
X139128333Y-144811666D02*
X137223571Y-144811666D01*
X139509285Y-145954523D02*
X138175952Y-141954523D01*
X136842619Y-145954523D01*
X135509285Y-145954523D02*
X135509285Y-141954523D01*
X133223571Y-145954523D01*
X133223571Y-141954523D01*
X122268809Y-143859285D02*
X121697380Y-144049761D01*
X121506904Y-144240238D01*
X121316428Y-144621190D01*
X121316428Y-145192619D01*
X121506904Y-145573571D01*
X121697380Y-145764047D01*
X122078333Y-145954523D01*
X123602142Y-145954523D01*
X123602142Y-141954523D01*
X122268809Y-141954523D01*
X121887857Y-142145000D01*
X121697380Y-142335476D01*
X121506904Y-142716428D01*
X121506904Y-143097380D01*
X121697380Y-143478333D01*
X121887857Y-143668809D01*
X122268809Y-143859285D01*
X123602142Y-143859285D01*
X119602142Y-143859285D02*
X118268809Y-143859285D01*
X117697380Y-145954523D02*
X119602142Y-145954523D01*
X119602142Y-141954523D01*
X117697380Y-141954523D01*
X115983095Y-145954523D02*
X115983095Y-141954523D01*
X115030714Y-141954523D01*
X114459285Y-142145000D01*
X114078333Y-142525952D01*
X113887857Y-142906904D01*
X113697380Y-143668809D01*
X113697380Y-144240238D01*
X113887857Y-145002142D01*
X114078333Y-145383095D01*
X114459285Y-145764047D01*
X115030714Y-145954523D01*
X115983095Y-145954523D01*
X88050714Y-123522857D02*
X88050714Y-121237142D01*
X86907857Y-122380000D02*
X89193571Y-122380000D01*
X88050714Y-117522857D02*
X88050714Y-115237142D01*
X82010476Y-121856190D02*
X82010476Y-124141904D01*
X82010476Y-122999047D02*
X86010476Y-122999047D01*
X85439047Y-123380000D01*
X85058095Y-123760952D01*
X84867619Y-124141904D01*
X85629523Y-120332380D02*
X85820000Y-120141904D01*
X86010476Y-119760952D01*
X86010476Y-118808571D01*
X85820000Y-118427619D01*
X85629523Y-118237142D01*
X85248571Y-118046666D01*
X84867619Y-118046666D01*
X84296190Y-118237142D01*
X82010476Y-120522857D01*
X82010476Y-118046666D01*
X83153333Y-116522857D02*
X83153333Y-114618095D01*
X82010476Y-116903809D02*
X86010476Y-115570476D01*
X82010476Y-114237142D01*
X88050714Y-103837857D02*
X88050714Y-101552142D01*
X86907857Y-102695000D02*
X89193571Y-102695000D01*
X88050714Y-97837857D02*
X88050714Y-95552142D01*
X86010476Y-101091904D02*
X86010476Y-102996666D01*
X84105714Y-103187142D01*
X84296190Y-102996666D01*
X84486666Y-102615714D01*
X84486666Y-101663333D01*
X84296190Y-101282380D01*
X84105714Y-101091904D01*
X83724761Y-100901428D01*
X82772380Y-100901428D01*
X82391428Y-101091904D01*
X82200952Y-101282380D01*
X82010476Y-101663333D01*
X82010476Y-102615714D01*
X82200952Y-102996666D01*
X82391428Y-103187142D01*
X83153333Y-99377619D02*
X83153333Y-97472857D01*
X82010476Y-99758571D02*
X86010476Y-98425238D01*
X82010476Y-97091904D01*
D11*
X220980000Y-34925000D02*
X220980000Y-69215000D01*
X223520000Y-34925000D02*
X223520000Y-69215000D01*
D10*
X222698571Y-45716428D02*
X222698571Y-45002142D01*
X223412857Y-44930714D01*
X223341428Y-45002142D01*
X223270000Y-45145000D01*
X223270000Y-45502142D01*
X223341428Y-45645000D01*
X223412857Y-45716428D01*
X223555714Y-45787857D01*
X223912857Y-45787857D01*
X224055714Y-45716428D01*
X224127142Y-45645000D01*
X224198571Y-45502142D01*
X224198571Y-45145000D01*
X224127142Y-45002142D01*
X224055714Y-44930714D01*
X222698571Y-46216428D02*
X224198571Y-46716428D01*
X222698571Y-47216428D01*
X220158571Y-45287857D02*
X220158571Y-45430714D01*
X220230000Y-45573571D01*
X220301428Y-45645000D01*
X220444285Y-45716428D01*
X220730000Y-45787857D01*
X221087142Y-45787857D01*
X221372857Y-45716428D01*
X221515714Y-45645000D01*
X221587142Y-45573571D01*
X221658571Y-45430714D01*
X221658571Y-45287857D01*
X221587142Y-45145000D01*
X221515714Y-45073571D01*
X221372857Y-45002142D01*
X221087142Y-44930714D01*
X220730000Y-44930714D01*
X220444285Y-45002142D01*
X220301428Y-45073571D01*
X220230000Y-45145000D01*
X220158571Y-45287857D01*
X220158571Y-46216428D02*
X221658571Y-46716428D01*
X220158571Y-47216428D01*
X225238571Y-35468571D02*
X225238571Y-36468571D01*
X226738571Y-35468571D01*
X226738571Y-36468571D01*
X226167142Y-37040000D02*
X226167142Y-38182857D01*
X226738571Y-37611428D02*
X225595714Y-37611428D01*
X225238571Y-40548571D02*
X225238571Y-41548571D01*
X226738571Y-40548571D01*
X226738571Y-41548571D01*
X226167142Y-42120000D02*
X226167142Y-43262857D01*
X226024285Y-48740000D02*
X226738571Y-48740000D01*
X225238571Y-48240000D02*
X226024285Y-48740000D01*
X225238571Y-49240000D01*
X226167142Y-49740000D02*
X226167142Y-50882857D01*
X226738571Y-50311428D02*
X225595714Y-50311428D01*
X226024285Y-53820000D02*
X226738571Y-53820000D01*
X225238571Y-53320000D02*
X226024285Y-53820000D01*
X225238571Y-54320000D01*
X226167142Y-54820000D02*
X226167142Y-55962857D01*
X225238571Y-60868571D02*
X226738571Y-61868571D01*
X225238571Y-61868571D02*
X226738571Y-60868571D01*
X226167142Y-62440000D02*
X226167142Y-63582857D01*
X226738571Y-63011428D02*
X225595714Y-63011428D01*
X225238571Y-65948571D02*
X226738571Y-66948571D01*
X225238571Y-66948571D02*
X226738571Y-65948571D01*
X226167142Y-67520000D02*
X226167142Y-68662857D01*
D11*
X210820000Y-70485000D02*
X210820000Y-33655000D01*
X227330000Y-70485000D02*
X210820000Y-70485000D01*
X227330000Y-33655000D02*
X227330000Y-70485000D01*
X210820000Y-33655000D02*
X227330000Y-33655000D01*
D10*
X213709285Y-38324047D02*
X213709285Y-39657380D01*
X215804523Y-40228809D02*
X215804523Y-38324047D01*
X211804523Y-38324047D01*
X211804523Y-40228809D01*
X215804523Y-41943095D02*
X211804523Y-41943095D01*
X215804523Y-44228809D01*
X211804523Y-44228809D01*
X215804523Y-46133571D02*
X211804523Y-46133571D01*
X211804523Y-47085952D01*
X211995000Y-47657380D01*
X212375952Y-48038333D01*
X212756904Y-48228809D01*
X213518809Y-48419285D01*
X214090238Y-48419285D01*
X214852142Y-48228809D01*
X215233095Y-48038333D01*
X215614047Y-47657380D01*
X215804523Y-47085952D01*
X215804523Y-46133571D01*
X215614047Y-49943095D02*
X215804523Y-50514523D01*
X215804523Y-51466904D01*
X215614047Y-51847857D01*
X215423571Y-52038333D01*
X215042619Y-52228809D01*
X214661666Y-52228809D01*
X214280714Y-52038333D01*
X214090238Y-51847857D01*
X213899761Y-51466904D01*
X213709285Y-50705000D01*
X213518809Y-50324047D01*
X213328333Y-50133571D01*
X212947380Y-49943095D01*
X212566428Y-49943095D01*
X212185476Y-50133571D01*
X211995000Y-50324047D01*
X211804523Y-50705000D01*
X211804523Y-51657380D01*
X211995000Y-52228809D01*
X211804523Y-53371666D02*
X211804523Y-55657380D01*
X215804523Y-54514523D02*
X211804523Y-54514523D01*
X211804523Y-57752619D02*
X211804523Y-58514523D01*
X211995000Y-58895476D01*
X212375952Y-59276428D01*
X213137857Y-59466904D01*
X214471190Y-59466904D01*
X215233095Y-59276428D01*
X215614047Y-58895476D01*
X215804523Y-58514523D01*
X215804523Y-57752619D01*
X215614047Y-57371666D01*
X215233095Y-56990714D01*
X214471190Y-56800238D01*
X213137857Y-56800238D01*
X212375952Y-56990714D01*
X211995000Y-57371666D01*
X211804523Y-57752619D01*
X215804523Y-61181190D02*
X211804523Y-61181190D01*
X211804523Y-62705000D01*
X211995000Y-63085952D01*
X212185476Y-63276428D01*
X212566428Y-63466904D01*
X213137857Y-63466904D01*
X213518809Y-63276428D01*
X213709285Y-63085952D01*
X213899761Y-62705000D01*
X213899761Y-61181190D01*
X215614047Y-64990714D02*
X215804523Y-65562142D01*
X215804523Y-66514523D01*
X215614047Y-66895476D01*
X215423571Y-67085952D01*
X215042619Y-67276428D01*
X214661666Y-67276428D01*
X214280714Y-67085952D01*
X214090238Y-66895476D01*
X213899761Y-66514523D01*
X213709285Y-65752619D01*
X213518809Y-65371666D01*
X213328333Y-65181190D01*
X212947380Y-64990714D01*
X212566428Y-64990714D01*
X212185476Y-65181190D01*
X211995000Y-65371666D01*
X211804523Y-65752619D01*
X211804523Y-66705000D01*
X211995000Y-67276428D01*
M02*
