M48
;DRILL file {KiCad (5.0.2)-1} date 2/4/2019 1:01:04 PM
;FORMAT={-:-/ absolute / inch / decimal}
FMAT,2
INCH,TZ
T1C0.0157
T2C0.0276
T3C0.0315
T4C0.0354
T5C0.0394
T6C0.0400
T7C0.0433
T8C0.0531
T9C0.0551
T10C0.0669
T11C0.1200
%
G90
G05
T1
X4.98Y-4.1
X4.98Y-4.16
X4.98Y-4.22
X5.04Y-4.1
X5.04Y-4.16
X5.04Y-4.22
X5.07Y-2.96
X5.1Y-4.1
X5.1Y-4.16
X5.1Y-4.22
X5.28Y-3.2
X5.36Y-2.59
X5.36Y-2.93
X5.46Y-3.02
X5.51Y-3.75
X5.52Y-2.93
X5.55Y-2.93
X5.75Y-2.93
X5.78Y-2.93
X5.84Y-3.95
X5.87Y-3.61
X5.92Y-3.07
X6.0159Y-3.176
X6.25Y-2.175
X6.25Y-2.5
X6.275Y-2.125
X6.275Y-2.55
X6.3Y-2.175
X6.3Y-2.5
X6.43Y-3.11
X6.77Y-2.58
X6.8606Y-4.0265
X6.9581Y-2.5485
X7.164Y-2.5518
X7.322Y-2.45
X7.4523Y-2.6483
X7.49Y-2.28
X7.625Y-2.29
X7.7774Y-2.7285
X8.2Y-3.54
X8.34Y-2.785
X8.345Y-2.855
X8.345Y-2.955
X8.415Y-4.44
X8.525Y-5.05
T2
X4.5189Y-4.2028
X4.8189Y-4.2028
X5.375Y-1.85
X5.675Y-1.85
X8.1Y-5.275
X8.1Y-5.575
X3.275Y-1.85
X3.575Y-1.85
X5.2689Y-4.2028
X5.5689Y-4.2028
X5.2689Y-3.9528
X5.5689Y-3.9528
X6.425Y-2.
X6.725Y-2.
X3.275Y-2.
X3.575Y-2.
X6.0189Y-3.9528
X6.3189Y-3.9528
X6.175Y-3.125
X6.175Y-3.425
X4.5189Y-3.9528
X4.8189Y-3.9528
X4.325Y-2.
X4.625Y-2.
X6.0189Y-4.0778
X6.3189Y-4.0778
X5.2689Y-4.0778
X5.5689Y-4.0778
X7.15Y-3.375
X7.45Y-3.375
X7.475Y-1.85
X7.775Y-1.85
X5.375Y-2.
X5.675Y-2.
X6.35Y-3.125
X6.35Y-3.425
X7.15Y-3.25
X7.45Y-3.25
X7.1Y-5.275
X7.1Y-5.575
X6.0189Y-4.2028
X6.3189Y-4.2028
X7.6Y-5.275
X7.6Y-5.575
X7.475Y-2.
X7.775Y-2.
X4.5189Y-4.0778
X4.8189Y-4.0778
X3.9Y-2.575
X3.9Y-2.875
X4.325Y-1.85
X4.625Y-1.85
X6.425Y-1.85
X6.725Y-1.85
T3
X7.475Y-1.43
X7.5734Y-1.43
X6.8516Y-5.375
X6.95Y-5.375
X6.425Y-1.425
X6.5234Y-1.425
X4.0531Y-4.1278
X4.25Y-4.1278
X4.15Y-3.8
X4.15Y-3.8984
X5.375Y-1.425
X5.4734Y-1.425
X3.275Y-1.425
X3.3734Y-1.425
X4.325Y-1.425
X4.4234Y-1.425
X7.8516Y-5.375
X7.95Y-5.375
X7.3516Y-5.375
X7.45Y-5.375
T4
X4.6689Y-4.3528
X4.6689Y-4.4528
X5.4189Y-4.3528
X5.4189Y-4.4528
X3.625Y-2.675
X3.625Y-2.775
X6.1689Y-4.3528
X6.1689Y-4.4528
T5
X5.8Y-3.1
X5.8Y-3.2
X5.8Y-3.3
X5.8Y-3.4
X6.425Y-1.675
X6.425Y-2.175
X6.525Y-1.675
X6.525Y-2.175
X6.625Y-1.675
X6.625Y-2.175
X6.725Y-1.675
X6.725Y-2.175
X6.825Y-1.675
X6.825Y-2.175
X6.925Y-1.675
X6.925Y-2.175
X7.025Y-1.675
X7.025Y-2.175
X7.125Y-1.675
X7.125Y-2.175
X5.3189Y-5.0028
X5.4189Y-5.0028
X5.5189Y-5.0028
X6.875Y-1.875
X6.875Y-1.975
X6.975Y-1.875
X6.975Y-1.975
X7.075Y-1.875
X7.075Y-1.975
X8.598Y-2.1608
X8.698Y-2.1608
X8.798Y-2.1608
X4.775Y-1.875
X4.775Y-1.975
X4.875Y-1.875
X4.875Y-1.975
X4.975Y-1.875
X4.975Y-1.975
X7.35Y-5.675
X7.45Y-5.675
X8.9Y-4.85
X8.9Y-4.95
X8.9Y-5.05
X4.675Y-1.525
X4.775Y-1.525
X4.875Y-1.525
X4.975Y-1.525
X3.625Y-1.4
X3.725Y-1.4
X3.825Y-1.4
X3.925Y-1.4
X6.7Y-4.1
X6.8Y-4.1
X8.598Y-2.6608
X8.698Y-2.6608
X8.798Y-2.6608
X6.7Y-3.925
X6.8Y-3.925
X7.625Y-2.375
X7.725Y-2.375
X7.825Y-2.375
X7.925Y-2.375
X8.025Y-2.375
X5.375Y-1.675
X5.375Y-2.175
X5.475Y-1.675
X5.475Y-2.175
X5.575Y-1.675
X5.575Y-2.175
X5.675Y-1.675
X5.675Y-2.175
X5.775Y-1.675
X5.775Y-2.175
X5.875Y-1.675
X5.875Y-2.175
X5.975Y-1.675
X5.975Y-2.175
X6.075Y-1.675
X6.075Y-2.175
X8.4Y-4.85
X8.4Y-4.95
X8.4Y-5.05
X4.5689Y-5.0028
X4.6689Y-5.0028
X4.7689Y-5.0028
X3.625Y-1.525
X3.725Y-1.525
X3.825Y-1.525
X3.925Y-1.525
X3.725Y-1.875
X3.725Y-1.975
X3.825Y-1.875
X3.825Y-1.975
X3.925Y-1.875
X3.925Y-1.975
X7.15Y-3.1
X7.25Y-3.1
X7.35Y-3.1
X7.45Y-3.1
X3.25Y-2.75
X6.85Y-5.675
X6.95Y-5.675
X5.1Y-3.1
X5.1Y-3.2
X5.1Y-3.3
X5.1Y-3.4
X7.825Y-1.43
X7.925Y-1.43
X8.025Y-1.43
X8.125Y-1.43
X8.598Y-1.9608
X8.698Y-1.9608
X8.798Y-1.9608
X8.598Y-1.4608
X8.698Y-1.4608
X8.798Y-1.4608
X7.925Y-1.875
X7.925Y-1.975
X8.025Y-1.875
X8.025Y-1.975
X8.125Y-1.875
X8.125Y-1.975
X8.625Y-3.975
X8.625Y-4.075
X8.625Y-4.175
X8.625Y-4.275
X8.625Y-4.375
X8.725Y-3.975
X8.725Y-4.075
X8.725Y-4.175
X8.725Y-4.275
X8.725Y-4.375
X4.4397Y-2.375
X4.5397Y-2.375
X4.6397Y-2.375
X4.7397Y-2.375
X4.8397Y-2.375
X5.525Y-2.375
X5.625Y-2.375
X5.725Y-2.375
X5.825Y-2.375
X5.925Y-2.375
X7.85Y-5.675
X7.95Y-5.675
X7.475Y-1.675
X7.475Y-2.175
X7.575Y-1.675
X7.575Y-2.175
X7.675Y-1.675
X7.675Y-2.175
X7.775Y-1.675
X7.775Y-2.175
X7.875Y-1.675
X7.875Y-2.175
X7.975Y-1.675
X7.975Y-2.175
X8.075Y-1.675
X8.075Y-2.175
X8.175Y-1.675
X8.175Y-2.175
X6.0689Y-5.0028
X6.1689Y-5.0028
X6.2689Y-5.0028
X4.675Y-1.4
X4.775Y-1.4
X4.875Y-1.4
X4.975Y-1.4
X5.825Y-1.875
X5.825Y-1.975
X5.925Y-1.875
X5.925Y-1.975
X6.025Y-1.875
X6.025Y-1.975
X8.598Y-2.4608
X8.698Y-2.4608
X8.798Y-2.4608
X6.775Y-1.425
X6.875Y-1.425
X6.975Y-1.425
X7.075Y-1.425
X6.575Y-2.375
X6.675Y-2.375
X6.775Y-2.375
X6.875Y-2.375
X6.975Y-2.375
X3.275Y-1.675
X3.275Y-2.175
X3.375Y-1.675
X3.375Y-2.175
X3.475Y-1.675
X3.475Y-2.175
X3.575Y-1.675
X3.575Y-2.175
X3.675Y-1.675
X3.675Y-2.175
X3.775Y-1.675
X3.775Y-2.175
X3.875Y-1.675
X3.875Y-2.175
X3.975Y-1.675
X3.975Y-2.175
X5.725Y-1.4
X5.825Y-1.4
X5.925Y-1.4
X6.025Y-1.4
X7.275Y-4.1
X7.375Y-4.1
X8.598Y-1.6608
X8.698Y-1.6608
X8.798Y-1.6608
X8.625Y-3.1
X8.625Y-3.2
X8.625Y-3.3
X8.625Y-3.4
X8.625Y-3.5
X8.725Y-3.1
X8.725Y-3.2
X8.725Y-3.3
X8.725Y-3.4
X8.725Y-3.5
X3.425Y-2.375
X3.525Y-2.375
X3.625Y-2.375
X3.725Y-2.375
X3.825Y-2.375
X4.325Y-1.675
X4.325Y-2.175
X4.425Y-1.675
X4.425Y-2.175
X4.525Y-1.675
X4.525Y-2.175
X4.625Y-1.675
X4.625Y-2.175
X4.725Y-1.675
X4.725Y-2.175
X4.825Y-1.675
X4.825Y-2.175
X4.925Y-1.675
X4.925Y-2.175
X5.025Y-1.675
X5.025Y-2.175
X8.65Y-4.85
X8.65Y-4.95
X8.65Y-5.05
X5.725Y-1.525
X5.825Y-1.525
X5.925Y-1.525
X6.025Y-1.525
X7.275Y-3.925
X7.375Y-3.925
T6
X6.97Y-4.69
X7.07Y-4.69
X7.17Y-4.69
X7.27Y-4.69
X7.37Y-4.69
X7.47Y-4.69
X7.57Y-4.69
X7.67Y-4.69
X5.87Y-2.79
X5.97Y-2.79
X6.07Y-2.79
X6.17Y-2.79
X6.27Y-2.79
X6.37Y-2.79
X6.47Y-2.79
X6.57Y-2.79
X6.07Y-4.69
X6.17Y-4.69
X6.27Y-4.69
X6.37Y-4.69
X6.47Y-4.69
X6.57Y-4.69
X6.67Y-4.69
X6.77Y-4.69
X4.81Y-2.79
X4.91Y-2.79
X5.01Y-2.79
X5.11Y-2.79
X5.21Y-2.79
X5.31Y-2.79
X5.41Y-2.79
X5.51Y-2.79
X5.61Y-2.79
X5.71Y-2.79
X6.77Y-2.79
X6.87Y-2.79
X6.97Y-2.79
X7.07Y-2.79
X7.17Y-2.79
X7.27Y-2.79
X7.37Y-2.79
X7.47Y-2.79
X7.77Y-2.79
X7.77Y-2.89
X7.77Y-2.99
X7.77Y-3.09
X7.77Y-3.19
X7.77Y-3.29
X7.77Y-3.39
X7.77Y-3.49
X7.77Y-3.59
X7.77Y-3.69
X7.77Y-3.79
X7.77Y-3.89
X7.77Y-3.99
X7.77Y-4.09
X7.77Y-4.19
X7.77Y-4.29
X7.77Y-4.39
X7.77Y-4.49
X7.87Y-2.79
X7.87Y-2.89
X7.87Y-2.99
X7.87Y-3.09
X7.87Y-3.19
X7.87Y-3.29
X7.87Y-3.39
X7.87Y-3.49
X7.87Y-3.59
X7.87Y-3.69
X7.87Y-3.79
X7.87Y-3.89
X7.87Y-3.99
X7.87Y-4.09
X7.87Y-4.19
X7.87Y-4.29
X7.87Y-4.39
X7.87Y-4.49
X5.17Y-4.69
X5.27Y-4.69
X5.37Y-4.69
X5.47Y-4.69
X5.57Y-4.69
X5.67Y-4.69
X5.77Y-4.69
X5.87Y-4.69
T7
X8.5978Y-5.35
X8.5978Y-5.6059
X8.775Y-5.35
X8.775Y-5.6059
T8
X3.175Y-3.2277
X3.275Y-3.1277
X3.275Y-3.3277
X3.375Y-3.2277
X3.7781Y-3.2277
X3.8781Y-3.1277
X3.8781Y-3.3277
X3.9781Y-3.2277
X3.175Y-5.4028
X3.275Y-5.3028
X3.275Y-5.5028
X3.375Y-5.4028
X3.7781Y-5.4028
X3.8781Y-5.3028
X3.8781Y-5.5028
X3.9781Y-5.4028
T9
X4.5939Y-3.0277
X4.5939Y-3.4277
X4.3439Y-3.0277
X4.3439Y-3.4277
T10
X4.4939Y-5.4028
X4.8679Y-5.4028
X5.2419Y-5.4028
X5.6159Y-5.4028
X5.9899Y-5.4028
X6.3639Y-5.4028
X3.6189Y-3.7527
X3.6189Y-4.1268
X3.6189Y-4.5008
X3.6189Y-4.8748
T11
X7.62Y-2.79
X4.67Y-2.79
X7.87Y-4.69
T0
M30
